:SAMPLES-PER-SECOND 30
:FULLY-SPECIFIED
:DEGREES
1456
root  -20.9367 39.4471 28.992 173.093 -66.3773 179.905
RightUpLeg  -7.004 -8.11839 0.376963
RightLeg  16.0399 4.11246 2.3884
RightFoot  -4.11674 0.104201 -2.08896
RightToes  1.33877e-009 0 -3.6325e-017
Spine  6.5422 -4.36282 5.02256
Spine1  7.61579 -5.06429 6.06172
HEad  -43.7363 8.99636 -11.2225
LeftShoulder1  0.49094 2.08212 -28.3947
LeftArm  21.6023 -25.9459 -68.412
LeftForeArm  12.5565 -21.6347 -4.73977
LeftHand  -0.0569653 4.84384 7.29022
RightShoulder  -0.303963 -4.37429 27.7232
RightArm  11.5354 6.76906 46.635
RightForeArm  21.7825 -5.22198 7.06017
RightHand  -0.191608 0.227925 -4.05423
LeftUpLeg  -0.139067 2.09573 4.31788
LeftLeg  39.9801 -1.55601 -1.0274
LeftFoot  -12.4544 -0.0097465 -8.67664
LeftToes  -1.45701e-009 4.75788e-011 -4.21586e-011
1457
root  -20.1269 39.2715 29.3871 171.822 -66.2369 -178.752
RightUpLeg  -8.76303 -7.82724 1.10426
RightLeg  16.4882 3.72588 2.38692
RightFoot  -3.00451 0.128137 -2.03584
RightToes  1.33877e-009 0 -3.6325e-017
Spine  6.63845 -4.28892 4.28108
Spine1  7.98703 -5.33693 7.43755
HEad  -49.6891 4.74665 -7.67075
LeftShoulder1  0.451642 2.21624 -28.9692
LeftArm  19.701 -25.5912 -68.8159
LeftForeArm  16.9248 -17.0683 -7.19879
LeftHand  -0.00624595 5.77541 5.24387
RightShoulder  -0.307344 -4.38855 27.5072
RightArm  6.68105 1.81793 43.9562
RightForeArm  15.2353 -4.45016 4.58389
RightHand  -0.22277 -0.858253 -5.49433
LeftUpLeg  2.88661 1.90531 3.95507
LeftLeg  39.7182 -2.78601 -2.10814
LeftFoot  -12.0388 0.0138066 -9.58666
LeftToes  -1.45701e-009 4.75788e-011 -4.21586e-011
1458
root  -19.3036 39.1214 29.7536 170.613 -66.1729 -177.182
RightUpLeg  -10.4467 -7.44962 1.89394
RightLeg  16.2249 3.3673 2.46833
RightFoot  -1.55368 0.158783 -1.97286
RightToes  1.33877e-009 0 -3.6325e-017
Spine  6.67961 -4.35402 3.24952
Spine1  7.73479 -5.79606 8.62
HEad  -54.8593 7.74691 -10.2571
LeftShoulder1  0.405415 2.35972 -29.3236
LeftArm  13.2318 -25.1118 -68.2039
LeftForeArm  24.3232 -10.7703 -10.4648
LeftHand  -0.00258349 6.07827 4.37189
RightShoulder  -0.393472 -4.64563 27.431
RightArm  3.62256 -3.44632 41.1531
RightForeArm  4.11846 -1.21368 3.21344
RightHand  -0.359157 0.660173 -7.0471
LeftUpLeg  5.77685 2.06569 3.69032
LeftLeg  37.38 -4.31665 -3.1539
LeftFoot  -11.0496 0.087498 -9.52781
LeftToes  -1.45701e-009 4.75788e-011 -4.21586e-011
1459
root  -18.497 39.0745 30.0792 170.594 -66.2605 -176.761
RightUpLeg  -11.6059 -6.84618 2.21123
RightLeg  14.7233 2.76601 2.35264
RightFoot  0.428905 0.177567 -1.69974
RightToes  1.33877e-009 0 -3.6325e-017
Spine  6.09349 -4.52824 1.29065
Spine1  7.86306 -6.47595 9.39037
HEad  -59.1372 11.3228 -13.3904
LeftShoulder1  0.47969 2.14569 -29.1868
LeftArm  6.92515 -23.0585 -66.8184
LeftForeArm  29.6215 -6.14411 -11.144
LeftHand  0.0132112 6.89071 3.54587
RightShoulder  -0.491448 -4.93078 27.5937
RightArm  2.93769 -7.1378 38.2618
RightForeArm  -3.03217 1.79174 2.95654
RightHand  -0.308581 0.835316 -5.72724
LeftUpLeg  9.08143 2.83817 3.39373
LeftLeg  31.9451 -5.68781 -3.48327
LeftFoot  -13.4409 -0.0398122 -7.5094
LeftToes  -1.45701e-009 4.75788e-011 -4.21586e-011
1460
root  -17.6163 39.0389 30.414 170.657 -66.5763 -176.219
RightUpLeg  -12.5099 -6.11763 2.46372
RightLeg  12.1477 1.52631 2.21281
RightFoot  2.45066 0.107903 -0.762402
RightToes  1.33877e-009 0 -3.6325e-017
Spine  6.10274 -4.82519 -1.30208
Spine1  7.17095 -7.48092 10.8556
HEad  -65.6602 16.029 -15.5064
LeftShoulder1  0.457404 2.23548 -30.0207
LeftArm  2.70437 -20.4419 -64.4541
LeftForeArm  32.5327 -2.80465 -10.5449
LeftHand  0.0242343 7.49475 3.29475
RightShoulder  -0.516698 -5.02603 27.1255
RightArm  3.84557 -9.35494 36.0156
RightForeArm  -4.48192 4.18059 3.2382
RightHand  -0.156737 0.336259 -3.21331
LeftUpLeg  11.508 3.39151 3.29186
LeftLeg  24.3716 -4.85438 -2.1149
LeftFoot  -17.849 -0.107752 -3.66106
LeftToes  -1.45701e-009 4.75788e-011 -4.21586e-011
1461
root  -16.6286 39.0365 30.7795 171.965 -66.4844 -178.027
RightUpLeg  -12.3548 -5.8645 1.79336
RightLeg  9.20951 1.29941 2.19258
RightFoot  4.172 -0.0603765 0.650932
RightToes  1.33877e-009 0 -3.6325e-017
Spine  7.40869 -4.73366 -4.43831
Spine1  6.93411 -7.93431 11.4899
HEad  -79.1006 21.3401 -10.3709
LeftShoulder1  0.30051 2.6934 -30.9176
LeftArm  1.84527 -18.4291 -61.2749
LeftForeArm  31.9458 -1.08871 -10.4612
LeftHand  0.0416306 8.44024 3.18168
RightShoulder  -0.60112 -5.26993 27.2972
RightArm  4.64048 -9.03724 35.3276
RightForeArm  -5.89778 4.25862 3.59034
RightHand  -0.263683 1.59918 -4.57816
LeftUpLeg  13.3069 3.497 1.87119
LeftLeg  18.4521 -2.04728 -0.380617
LeftFoot  -19.4276 0.0663297 -0.656791
LeftToes  -1.45701e-009 4.75788e-011 -4.21586e-011
1462
root  -15.445 38.9911 31.1592 176.079 -65.8287 177.564
RightUpLeg  -13.415 -5.74905 0.520575
RightLeg  7.20276 1.51741 1.8773
RightFoot  4.59063 -0.311819 2.45016
RightToes  1.33877e-009 0 -3.6325e-017
Spine  9.29937 -4.14873 -8.66555
Spine1  6.31275 -7.88122 12.3323
HEad  -92.1271 22.5466 -9.44642
LeftShoulder1  0.242024 2.85491 -31.2664
LeftArm  0.211232 -15.1792 -57.5767
LeftForeArm  31.8005 -1.32866 -10.1238
LeftHand  0.0270177 8.83431 2.38871
RightShoulder  -0.62888 -5.34395 27.4577
RightArm  4.75791 -8.65869 35.7966
RightForeArm  -0.714483 5.19834 3.48957
RightHand  -0.258241 2.28819 -4.07807
LeftUpLeg  12.6933 4.51299 -0.247958
LeftLeg  15.639 -0.6032 0.329675
LeftFoot  -19.5742 0.253088 1.89293
LeftToes  -1.45701e-009 4.75788e-011 -4.21586e-011
1463
root  -14.34 38.9532 31.4912 178.956 -64.4549 174.338
RightUpLeg  -13.6883 -5.37167 -0.413731
RightLeg  4.55316 2.04019 1.66677
RightFoot  3.10872 -0.63569 5.19704
RightToes  1.33877e-009 0 -3.6325e-017
Spine  10.0399 -3.35954 -10.6356
Spine1  6.94609 -7.0346 10.9931
HEad  -105.136 23.9593 -16.9833
LeftShoulder1  0.21788 2.93201 -32.0752
LeftArm  -1.21774 -12.0321 -52.9962
LeftForeArm  31.2396 -2.19881 -9.85111
LeftHand  0.0288858 8.47622 2.63041
RightShoulder  -0.618502 -5.32897 27.1542
RightArm  4.25353 -8.86234 38.234
RightForeArm  -1.23119 5.3105 3.47415
RightHand  -0.405282 2.54871 -6.13093
LeftUpLeg  11.3524 6.38927 -1.30439
LeftLeg  14.9562 -0.570827 0.261861
LeftFoot  -19.3884 0.309921 2.74653
LeftToes  -1.45701e-009 4.75788e-011 -4.21586e-011
1464
root  -13.2901 38.9612 31.8196 -178.546 -63.8819 171.76
RightUpLeg  -13.1535 -6.06316 -1.75567
RightLeg  0.703289 2.04341 1.98133
RightFoot  -0.680064 -0.913411 10.0684
RightToes  1.33877e-009 0 -3.6325e-017
Spine  10.8363 -3.0586 -10.1448
Spine1  6.76568 -5.76765 7.03386
HEad  -118.004 22.018 -26.6691
LeftShoulder1  0.35946 2.55389 -31.8566
LeftArm  -1.84496 -8.81975 -48.5224
LeftForeArm  29.9427 -2.68428 -9.95958
LeftHand  0.0243061 7.55666 3.56091
RightShoulder  -0.68868 -5.52141 27.4525
RightArm  3.32232 -9.83257 40.7105
RightForeArm  -1.59863 5.38598 3.25856
RightHand  -0.460272 2.80398 -6.74954
LeftUpLeg  8.7877 6.64371 -2.49017
LeftLeg  16.0659 -0.210934 0.18359
LeftFoot  -18.6035 0.276383 2.59876
LeftToes  -1.45701e-009 4.75788e-011 -4.21586e-011
1465
root  -12.3685 39.0409 32.1078 -176.637 -62.8843 169.977
RightUpLeg  -12.7811 -6.49941 -2.71105
RightLeg  -1.99293 1.65169 1.83465
RightFoot  -4.96554 -0.846974 14.2231
RightToes  1.33877e-009 0 -3.6325e-017
Spine  10.9604 -2.68649 -8.78573
Spine1  6.83178 -4.3593 3.36191
HEad  -134.666 21.5543 -30.5642
LeftShoulder1  0.170445 3.07458 -33.5016
LeftArm  -1.94605 -6.36708 -42.8613
LeftForeArm  28.2745 -3.33639 -10.2773
LeftHand  0.0240964 6.63777 5.24371
RightShoulder  -0.627687 -5.36319 27.0428
RightArm  2.42632 -10.899 43.6822
RightForeArm  -2.52069 4.88301 3.10528
RightHand  -0.388135 1.52912 -6.66191
LeftUpLeg  6.68317 7.20408 -3.25345
LeftLeg  16.3208 0.12448 -0.051971
LeftFoot  -17.0975 0.240799 2.7479
LeftToes  -1.45701e-009 4.75788e-011 -4.21586e-011
1466
root  -11.5109 39.295 32.4107 -176.772 -62.0519 170.867
RightUpLeg  -13.6519 -6.52925 -2.76705
RightLeg  -1.20271 1.38747 1.73734
RightFoot  -4.50532 -0.70148 11.1974
RightToes  1.33877e-009 0 -3.6325e-017
Spine  11.1464 -2.53589 -4.75117
Spine1  5.9816 -2.75646 -1.2094
HEad  -148.827 20.9986 -38.7917
LeftShoulder1  0.0619972 3.34979 -33.7579
LeftArm  -3.06922 -2.67436 -38.7382
LeftForeArm  27.5112 -3.89701 -9.70714
LeftHand  0.0436102 8.14801 3.31573
RightShoulder  -0.669387 -5.46612 27.4275
RightArm  3.39749 -11.5941 45.4244
RightForeArm  -2.11815 4.13659 3.55535
RightHand  -0.392503 1.92718 -6.40589
LeftUpLeg  5.11956 7.03544 -3.0175
LeftLeg  14.799 1.02197 -0.0503146
LeftFoot  -14.8531 0.170674 2.64424
LeftToes  -1.45701e-009 4.75788e-011 -4.21586e-011
